<svg width="46" height="52" viewBox="0 0 46 52" fill="none" xmlns="http://www.w3.org/2000/svg">
<path d="M44.06 24.9387C44.3411 25.2202 44.4988 25.6019 44.4986 25.9997C44.4983 26.3975 44.34 26.7789 44.0585 27.06L23.5453 47.5467C21.0134 50.0784 17.5795 51.5006 13.999 51.5004C10.4185 51.5003 6.98479 50.0778 4.45314 47.5459C1.92148 45.014 0.499302 41.5801 0.499466 37.9996C0.49963 34.4192 1.92212 30.9854 4.45401 28.4537L29.2738 3.28874C30.1548 2.4032 31.2018 1.70011 32.3549 1.21971C33.508 0.739308 34.7445 0.49103 35.9936 0.489086C37.2428 0.487143 38.48 0.731571 39.6346 1.20838C40.7892 1.68519 41.8384 2.38502 42.7222 3.26781C43.6059 4.1506 44.3069 5.19902 44.785 6.35306C45.2631 7.5071 45.509 8.7441 45.5084 9.99325C45.5079 11.2424 45.261 12.4792 44.7818 13.6328C44.3027 14.7864 43.6008 15.8342 42.7163 16.7162L17.8963 41.8815C17.3873 42.3983 16.7811 42.8092 16.1126 43.0908C15.4441 43.3723 14.7266 43.5188 14.0012 43.5219C13.2759 43.525 12.5571 43.3846 11.8863 43.1087C11.2154 42.8329 10.6058 42.4271 10.0924 41.9147C9.57902 41.4022 9.17208 40.7933 8.89499 40.123C8.6179 39.4527 8.47614 38.7342 8.47787 38.0088C8.4796 37.2835 8.62479 36.5657 8.90507 35.8967C9.18536 35.2277 9.5952 34.6207 10.111 34.1107L30.9293 12.9467C31.2083 12.6631 31.5885 12.502 31.9864 12.4987C32.3842 12.4954 32.767 12.6504 33.0506 12.9294C33.3343 13.2084 33.4954 13.5886 33.4987 13.9865C33.5019 14.3843 33.347 14.7671 33.068 15.0507L12.241 36.2237C12.0026 36.454 11.8123 36.7294 11.6813 37.0338C11.5503 37.3383 11.4811 37.6658 11.4778 37.9972C11.4745 38.3287 11.5371 38.6575 11.6621 38.9645C11.787 39.2715 11.9718 39.5506 12.2056 39.7855C12.4394 40.0205 12.7176 40.2066 13.024 40.333C13.3304 40.4595 13.6589 40.5237 13.9903 40.5221C14.3218 40.5204 14.6496 40.4528 14.9547 40.3233C15.2598 40.1937 15.5361 40.0048 15.7675 39.7675L40.5875 14.6025C41.1931 13.9997 41.6738 13.2835 42.0023 12.4947C42.3308 11.706 42.5005 10.8602 42.5019 10.0058C42.5032 9.15142 42.336 8.30514 42.01 7.51539C41.684 6.72563 41.2054 6.00791 40.6017 5.40327C39.9981 4.79863 39.2811 4.31893 38.4919 3.99162C37.7027 3.66432 36.8566 3.49582 36.0022 3.49577C35.1478 3.49572 34.3018 3.66412 33.5125 3.99134C32.7233 4.31855 32.0063 4.79817 31.4025 5.40274L6.58251 30.5677C5.60699 31.5423 4.83296 32.6994 4.30463 33.973C3.7763 35.2467 3.504 36.612 3.50329 37.9909C3.50258 39.3697 3.77348 40.7353 4.3005 42.0095C4.82753 43.2837 5.60036 44.4416 6.57489 45.4171C7.54941 46.3926 8.70653 47.1667 9.98019 47.695C11.2539 48.2233 12.6191 48.4956 13.998 48.4963C15.3769 48.497 16.7424 48.2262 18.0166 47.6991C19.2908 47.1721 20.4487 46.3993 21.4243 45.4247L41.9383 24.9375C42.0776 24.7983 42.2431 24.6878 42.4251 24.6126C42.6072 24.5373 42.8023 24.4986 42.9993 24.4987C43.1963 24.4988 43.3913 24.5377 43.5733 24.6132C43.7552 24.6887 43.9206 24.7993 44.0598 24.9387H44.06Z" fill="#2F80ED"/>
</svg>
