<svg width="54" height="46" viewBox="0 0 54 46" fill="none" xmlns="http://www.w3.org/2000/svg">
<path d="M52 42.5H49.5V2C49.5 1.60218 49.342 1.22064 49.0607 0.93934C48.7794 0.658035 48.3978 0.5 48 0.5H34C33.6022 0.5 33.2206 0.658035 32.9393 0.93934C32.658 1.22064 32.5 1.60218 32.5 2V12.5H20C19.6022 12.5 19.2206 12.658 18.9393 12.9393C18.658 13.2206 18.5 13.6022 18.5 14V24.5H6C5.60218 24.5 5.22064 24.658 4.93934 24.9393C4.65804 25.2206 4.5 25.6022 4.5 26V42.5H2C1.60218 42.5 1.22064 42.658 0.93934 42.9393C0.658035 43.2206 0.5 43.6022 0.5 44C0.5 44.3978 0.658035 44.7794 0.93934 45.0607C1.22064 45.342 1.60218 45.5 2 45.5H52C52.3978 45.5 52.7794 45.342 53.0607 45.0607C53.342 44.7794 53.5 44.3978 53.5 44C53.5 43.6022 53.342 43.2206 53.0607 42.9393C52.7794 42.658 52.3978 42.5 52 42.5ZM21.5 15.5H32.5V42.5H21.5V15.5ZM7.5 27.5H18.5V42.5H7.5V27.5ZM35.5 42.5V3.5H46.5V42.5H35.5Z" fill="#50D38D"/>
</svg>
