<svg width="50" height="50" viewBox="0 0 50 50" fill="none" xmlns="http://www.w3.org/2000/svg">
<path d="M17.9378 39.6165C16.626 43.5515 13.486 46.4468 8.85753 47.9898C6.76288 48.6831 4.57809 49.0663 2.37253 49.1273C1.9747 49.1273 1.59317 48.9693 1.31187 48.688C1.03056 48.4066 0.872529 48.0251 0.872529 47.6273C0.933603 45.4219 1.31691 43.2373 2.01028 41.1428C3.55328 36.514 6.44878 33.374 10.3835 32.0623C10.5706 31.999 10.7684 31.9734 10.9655 31.9867C11.1625 32.0001 11.355 32.0523 11.5318 32.1402C11.7087 32.2282 11.8664 32.3502 11.996 32.4993C12.1255 32.6484 12.2244 32.8216 12.2869 33.0089C12.3493 33.1963 12.3742 33.3942 12.36 33.5912C12.3458 33.7882 12.2928 33.9804 12.2041 34.1569C12.1154 34.3334 11.9927 34.4906 11.8431 34.6195C11.6935 34.7485 11.5199 34.8466 11.3323 34.9083C5.76478 36.764 4.35228 43.009 3.99403 46.002C6.98728 45.637 13.2433 44.2135 15.0915 38.6678C15.2173 38.2904 15.4879 37.9784 15.8438 37.8004C16.02 37.7123 16.2118 37.6598 16.4083 37.6458C16.6048 37.6319 16.8021 37.6567 16.989 37.719C17.1759 37.7813 17.3487 37.8798 17.4975 38.0089C17.6463 38.138 17.7683 38.2951 17.8564 38.4713C17.9445 38.6475 17.997 38.8393 18.011 39.0358C18.0249 39.2323 18.0001 39.4297 17.9378 39.6165V39.6165ZM43.031 20.404L40.642 22.7928V38.3138C40.6433 38.7736 40.5533 39.229 40.3774 39.6538C40.2014 40.0786 39.943 40.4643 39.617 40.7885L31.5315 48.874C31.0836 49.322 30.5224 49.64 29.9079 49.7941C29.2935 49.9482 28.6487 49.9326 28.0423 49.7491C27.436 49.5655 26.8909 49.2208 26.4651 48.7517C26.0393 48.2826 25.7487 47.7068 25.6245 47.0855L23.618 37.053L12.9468 26.3818L2.91453 24.3753C2.29334 24.2511 1.71751 23.9606 1.24845 23.5348C0.77938 23.109 0.434666 22.5639 0.25106 21.9577C0.0674549 21.3514 0.0518432 20.7066 0.205891 20.0921C0.359938 19.4777 0.677868 18.9165 1.12578 18.4685L9.21153 10.383C9.53582 10.057 9.92155 9.79861 10.3464 9.62267C10.7712 9.44673 11.2267 9.35678 11.6865 9.35804H27.2073L29.5963 6.96879C36.5823 -0.0172144 43.724 0.181785 46.471 0.591286C47.2119 0.698869 47.8982 1.04302 48.4276 1.57242C48.9569 2.10183 49.301 2.78814 49.4085 3.52904C49.8185 6.27554 50.0173 13.4175 43.031 20.404V20.404ZM3.50303 21.4335L13.1933 23.3718L24.2073 12.358H11.6863C11.6206 12.3578 11.5554 12.3707 11.4947 12.3958C11.434 12.421 11.3789 12.4579 11.3325 12.5045L3.24703 20.5895C3.18299 20.6536 3.13754 20.7338 3.11553 20.8216C3.09352 20.9094 3.09578 21.0016 3.12206 21.0883C3.14835 21.1749 3.19767 21.2528 3.26477 21.3136C3.33186 21.3744 3.41421 21.4159 3.50303 21.4335V21.4335ZM37.642 25.7928L26.6283 36.8068L28.5665 46.4973C28.5843 46.5861 28.6257 46.6684 28.6866 46.7354C28.7474 46.8024 28.8253 46.8517 28.912 46.8779C28.9986 46.9041 29.0908 46.9064 29.1786 46.8843C29.2664 46.8623 29.3465 46.8168 29.4105 46.7528L37.4958 38.6673C37.5423 38.6209 37.5792 38.5658 37.6043 38.5052C37.6294 38.4445 37.6422 38.3795 37.642 38.3138V25.7928ZM40.91 18.2825C42.9158 16.2765 47.47 10.8665 46.4415 3.97204C46.4264 3.86773 46.378 3.7711 46.3035 3.69658C46.229 3.62205 46.1323 3.57363 46.028 3.55854C39.1338 2.52979 33.7235 7.08429 31.7173 9.09004L28.8898 11.9175L28.8883 11.9193L15.8075 25L25 34.1925L38.081 21.1115L38.082 21.1103L40.91 18.2825V18.2825Z" fill="#FF8A00"/>
</svg>
