<svg width="52" height="52" viewBox="0 0 52 52" fill="none" xmlns="http://www.w3.org/2000/svg">
<path d="M25.9999 0C20.8576 0 15.8308 1.52487 11.5551 4.38179C7.27945 7.23871 3.94696 11.2994 1.97908 16.0502C0.0112044 20.8011 -0.503682 26.0288 0.499533 31.0723C1.50275 36.1159 3.97901 40.7486 7.61517 44.3848C11.2513 48.0209 15.8841 50.4972 20.9276 51.5004C25.9711 52.5036 31.1988 51.9887 35.9497 50.0209C40.7006 48.053 44.7612 44.7205 47.6182 40.4448C50.4751 36.1691 51.9999 31.1423 51.9999 26C51.9921 19.1068 49.2504 12.4981 44.3761 7.62385C39.5018 2.74959 32.8932 0.00780789 25.9999 0ZM25.9999 48C21.6488 48 17.3953 46.7097 13.7774 44.2923C10.1595 41.8749 7.33973 38.439 5.6746 34.419C4.00947 30.3991 3.5738 25.9756 4.42267 21.708C5.27155 17.4404 7.36685 13.5204 10.4436 10.4437C13.5204 7.3669 17.4404 5.2716 21.708 4.42272C25.9755 3.57385 30.399 4.00952 34.419 5.67465C38.439 7.33978 41.8749 10.1596 44.2923 13.7775C46.7097 17.3953 47.9999 21.6488 47.9999 26C47.9933 31.8327 45.6734 37.4247 41.549 41.549C37.4246 45.6734 31.8327 47.9934 25.9999 48ZM37.9999 26C37.9999 26.5304 37.7892 27.0391 37.4142 27.4142C37.0391 27.7893 36.5304 28 35.9999 28H27.9999V36C27.9999 36.5304 27.7892 37.0391 27.4142 37.4142C27.0391 37.7893 26.5304 38 25.9999 38C25.4695 38 24.9608 37.7893 24.5857 37.4142C24.2107 37.0391 23.9999 36.5304 23.9999 36V28H15.9999C15.4695 28 14.9608 27.7893 14.5857 27.4142C14.2107 27.0391 13.9999 26.5304 13.9999 26C13.9999 25.4696 14.2107 24.9609 14.5857 24.5858C14.9608 24.2107 15.4695 24 15.9999 24H23.9999V16C23.9999 15.4696 24.2107 14.9609 24.5857 14.5858C24.9608 14.2107 25.4695 14 25.9999 14C26.5304 14 27.0391 14.2107 27.4142 14.5858C27.7892 14.9609 27.9999 15.4696 27.9999 16V24H35.9999C36.5304 24 37.0391 24.2107 37.4142 24.5858C37.7892 24.9609 37.9999 25.4696 37.9999 26Z" fill="#9D54E0"/>
</svg>
